# xmcd
#
# Track frame offsets: 
#        150
#        13452
#        27528
#        41214
#        55509
#        68658
#        83631
#        99904
#        118828
#        132438
#        147610
#        159609
#        176466
#        191294
#        209659
#
# Disc length: 3018 seconds
#
# Revision: 2
# Processed by: cddbd v1.5.2PL0 Copyright (c) Steve Scherf et al.
# Submitted via: ExactAudioCopyFreeDBPlugin 1.0
#
DISCID=d90bc80f
DTITLE=Anne Murray - All of Me [CD1]
DYEAR=2005
DGENRE=Vocal
TTITLE0=All Of Me
TTITLE1=As Time Goes By
TTITLE2=Dream A Little Dream of Me
TTITLE3=I Wonder Who's Kissing Him Now
TTITLE4=I'm Gonna Sit Right Down And Write Myself A Letter
TTITLE5=Over The Rainbow
TTITLE6=Twilight Time
TTITLE7=My Buddy
TTITLE8=After You've Gone
TTITLE9=What'll I Do
TTITLE10=Don't Get Around Much Anymore
TTITLE11=Smile
TTITLE12=You Made Me Love You
TTITLE13=I'll Be Seeing You
TTITLE14=We'll Meet Again
EXTD=
EXTT0=
EXTT1=
EXTT2=
EXTT3=
EXTT4=
EXTT5=
EXTT6=
EXTT7=
EXTT8=
EXTT9=
EXTT10=
EXTT11=
EXTT12=
EXTT13=
EXTT14=
PLAYORDER=
